<svg xmlns="http://www.w3.org/2000/svg" aria-label="Graphify" role="img" viewBox="0 0 48 48"><defs><style>.edge,.edge-hot{stroke:#22c55e;stroke-width:1.1;stroke-linecap:round;opacity:.55;fill:none}.edge-hot{stroke:#4ade80;stroke-width:1.2;opacity:.9}.node{fill:#040806;stroke:#22c55e;stroke-width:1.3}.node-hub{fill:#0a1410;stroke:#4ade80;stroke-width:1.6}.node-amber{fill:#040806;stroke:#f59e0b;stroke-width:1.3}.node-amber-core{fill:#f59e0b}.node-core{fill:#22c55e}.node-hub-core{fill:#4ade80}</style></defs><circle cx="24" cy="24" r="11" fill="none" stroke="#22c55e" stroke-width=".4" opacity=".18"/><line x1="24" x2="10" y1="24" y2="11" class="edge-hot"/><line x1="24" x2="39" y1="24" y2="14" class="edge-hot"/><line x1="24" x2="38" y1="24" y2="36" class="edge-hot"/><line x1="24" x2="11" y1="24" y2="37" class="edge-hot"/><line x1="10" x2="39" y1="11" y2="14" class="edge"/><line x1="39" x2="38" y1="14" y2="36" class="edge"/><line x1="38" x2="11" y1="36" y2="37" class="edge"/><line x1="11" x2="10" y1="37" y2="11" class="edge"/><circle cx="10" cy="11" r="2.6" class="node"/><circle cx="10" cy="11" r="1.1" class="node-core"/><circle cx="39" cy="14" r="2.6" class="node"/><circle cx="39" cy="14" r="1.1" class="node-core"/><circle cx="38" cy="36" r="2.8" class="node-amber"/><circle cx="38" cy="36" r="1.25" class="node-amber-core"/><circle cx="11" cy="37" r="2.6" class="node"/><circle cx="11" cy="37" r="1.1" class="node-core"/><circle cx="24" cy="24" r="4.4" class="node-hub"/><circle cx="24" cy="24" r="1.8" class="node-hub-core"/></svg>